<svg xmlns="http://www.w3.org/2000/svg" width="18" height="18" viewBox="0 0 18 18">
    <path fill="#FFF" fill-rule="evenodd" d="M9 18A9 9 0 1 1 9 0a9 9 0 0 1 0 18zm6.119-8.977a.356.356 0 0 0-.055-.182l-1.862-2.927a.328.328 0 0 0-.275-.154h-2.516a.339.339 0 0 0-.331.346v5.644c0 .19.148.346.33.346h.678c0 .875.677 1.584 1.512 1.584s1.512-.71 1.512-1.584h.677c.183 0 .331-.155.331-.346V9.033l-.001-.01zm-3.599.337V7.2h1.402L14.4 9.36h-2.88zm1.44 3.6a.721.721 0 0 1 0-1.44.72.72 0 0 1 0 1.44zM8.926 5.04H3.314a.438.438 0 0 0-.434.443v6.23c0 .244.194.442.434.442h1.061c0 .842.67 1.525 1.496 1.525s1.495-.683 1.495-1.525h1.56c.24 0 .434-.198.434-.442v-6.23a.438.438 0 0 0-.434-.443zM5.76 12.96a.721.721 0 0 1 0-1.44.72.72 0 0 1 0 1.44z"/>
</svg>
