<svg xmlns="http://www.w3.org/2000/svg" width="18" height="18" viewBox="0 0 18 18">
    <path fill="#CA2F33" fill-rule="evenodd" d="M8.571.286a8.574 8.574 0 0 1 8.572 8.571A8.574 8.574 0 0 1 8.57 17.43 8.574 8.574 0 0 1 0 8.857 8.574 8.574 0 0 1 8.571.286zM10 14.203v-2.12c0-.201-.156-.369-.346-.369H7.511c-.2 0-.368.168-.368.369v2.12c0 .201.167.368.368.368h2.143c.19 0 .346-.167.346-.368zm-.022-3.84l.2-6.93a.224.224 0 0 0-.111-.2.43.43 0 0 0-.268-.09H7.344c-.1 0-.201.033-.268.09a.224.224 0 0 0-.112.2l.19 6.93c0 .157.167.28.38.28h2.064c.201 0 .369-.123.38-.28z"/>
</svg>
