<svg xmlns="http://www.w3.org/2000/svg" xmlns:xlink="http://www.w3.org/1999/xlink" width="132" height="42" viewBox="0 0 132 42">
    <defs>
        <path id="a" d="M43.273 0H0v42h43.273V0z"/>
    </defs>
    <g fill="none" fill-rule="evenodd">
        <path fill="#FFF" d="M97.738 20.998c0 2.1 1.412 3.616 3.34 3.616.931 0 1.86-.414 2.86-1.274V17.38c-1.344-.103-2.24-.172-2.756-.172-2.1 0-3.444 1.48-3.444 3.789m12.846-8.129v16.635h-6.646v-1.342c-.698 1.17-2.765 1.86-4.65 1.86-3.41-.001-7.922-2.757-7.922-9.093.103-2.687.895-4.822 2.411-6.44 1.55-1.62 3.582-2.446 6.096-2.446 2.24 0 5.786.276 10.71.826M54.501 23.718c3.031 1 5.236 1.516 6.648 1.516 1.067 0 1.618-.207 1.618-.654 0-.483-.516-.655-1.17-.862-.31-.103-1.378-.275-1.791-.378-4.133-.965-5.925-2.24-5.925-5.373 0-3.857 2.79-5.958 7.715-5.958 2.48 0 4.994.379 7.577 1.17l-1.067 4.822c-2.824-.86-4.89-1.274-6.2-1.274-1.033 0-1.55.275-1.55.827 0 .481.448.688 1.137.86.413.035 1.447.241 2.032.38 3.754.86 5.82 2.238 5.82 5.441 0 3.686-2.824 5.786-7.646 5.786-2.445 0-5.269-.517-8.403-1.55l1.205-4.753zM80.494 17.209c-.517 0-1.412.069-2.721.172v6.889c.929.137 1.86.206 2.824.206.965 0 1.757-.31 2.376-.964.654-.654.965-1.516.965-2.515 0-2.307-1.344-3.788-3.444-3.788m7.405-2.72c1.515 1.618 2.342 3.753 2.445 6.44 0 6.199-4.58 8.988-8.438 8.988-1.481 0-2.859-.068-4.133-.171v7.266H71.09V12.87c4.478-.55 8.06-.826 10.746-.826 2.514 0 4.546.826 6.062 2.445M131.266 18.552v10.952h-6.682V20.62c0-1.757-.723-2.618-2.17-2.618-.309 0-1.515.069-2.755.138v11.365h-6.681V12.87c4.89-.55 8.748-.826 11.537-.826 4.03 0 6.751 2.617 6.751 6.51"/>
        <g>
            <mask id="b" fill="#fff">
                <use xlink:href="#a"/>
            </mask>
            <path fill="#FFF" d="M31.205 25.824c.556 1.434 1.364 3.027 2.406 4.722l.164.266-3.212 1.94-.17-.217c-2.712-3.474-4.086-7.374-4.086-11.589 0-4.27 1.375-8.142 4.09-11.506l.168-.21 3.214 1.911-.168.27c-1.077 1.72-1.885 3.286-2.404 4.654-.515 1.339-.776 2.98-.776 4.881 0 1.896.26 3.538.774 4.878m-8.345 0c.555 1.434 1.365 3.027 2.407 4.722l.164.266-3.213 1.94-.17-.217c-2.712-3.474-4.088-7.374-4.088-11.589 0-4.272 1.378-8.142 4.093-11.506l.168-.21 3.214 1.911-.17.27c-1.074 1.72-1.883 3.286-2.405 4.654-.514 1.342-.775 2.984-.775 4.881 0 1.892.26 3.534.775 4.878m-8.345 0c.553 1.434 1.362 3.024 2.406 4.722l.163.266-3.212 1.94-.17-.217C10.99 29.06 9.614 25.16 9.614 20.946c0-4.27 1.378-8.142 4.092-11.506l.168-.21 3.212 1.911-.167.27c-1.075 1.72-1.886 3.286-2.404 4.654-.513 1.339-.775 2.98-.775 4.881 0 1.896.262 3.537.775 4.878M21.635 0C9.688 0 0 9.402 0 20.998 0 32.597 9.687 42 21.636 42c11.95 0 21.637-9.403 21.637-21.002C43.273 9.402 33.586 0 21.636 0" mask="url(#b)"/>
        </g>
    </g>
</svg>
